<?xml version="1.0" standalone="no"?>
<!DOCTYPE svg PUBLIC "-//W3C//DTD SVG 20010904//EN"
 "http://www.w3.org/TR/2001/REC-SVG-20010904/DTD/svg10.dtd">
<svg version="1.0" xmlns="http://www.w3.org/2000/svg"
 width="260.000000pt" height="260.000000pt" viewBox="0 0 260.000000 260.000000"
 preserveAspectRatio="xMidYMid meet">
<metadata>
Created by potrace 1.14, written by Peter Selinger 2001-2017
</metadata>
<g transform="translate(0.000000,260.000000) scale(0.100000,-0.100000)"
fill="#000000" stroke="none">
<path d="M0 1300 l0 -1300 1300 0 1300 0 0 1300 0 1300 -350 0 -350 0 0 -89
c0 -58 -4 -91 -11 -93 -7 -2 -14 -36 -17 -81 -4 -67 -2 -77 12 -77 9 0 19 -7
22 -15 4 -8 11 -15 18 -15 6 0 26 -16 45 -36 30 -30 33 -38 25 -62 -8 -23 -16
-28 -63 -34 -30 -3 -56 -10 -60 -16 -3 -5 -18 -12 -33 -15 -30 -8 -32 -15 -44
-177 -3 -47 -11 -88 -16 -92 -6 -3 -14 -45 -18 -93 -4 -48 -11 -90 -16 -93
-12 -9 -34 -94 -34 -131 0 -16 -5 -31 -10 -33 -6 -2 -15 -32 -20 -68 -5 -36
-14 -66 -20 -68 -17 -6 -11 -52 10 -74 11 -12 20 -34 20 -49 0 -21 7 -29 33
-40 17 -7 36 -19 40 -26 4 -7 14 -13 20 -13 7 0 20 -9 30 -20 9 -11 23 -20 31
-20 7 0 16 -8 19 -19 3 -13 18 -20 51 -25 25 -4 46 -11 46 -15 0 -5 15 -14 33
-22 17 -7 36 -19 40 -26 4 -7 15 -13 22 -13 8 0 15 -4 15 -10 0 -5 18 -14 40
-20 24 -6 40 -17 40 -25 0 -8 4 -15 10 -15 19 0 90 -77 90 -98 0 -20 5 -22 60
-22 33 0 60 -4 60 -10 0 -5 6 -10 14 -10 8 0 19 -13 25 -30 5 -16 14 -30 19
-30 5 0 14 -11 20 -25 13 -28 27 -47 55 -73 14 -13 17 -34 17 -107 0 -131 -3
-138 -56 -132 -24 2 -44 0 -44 -5 0 -12 -58 -68 -70 -68 -6 0 -10 -7 -10 -15
0 -8 -11 -17 -25 -21 -39 -10 -158 0 -163 14 -5 16 -89 16 -94 0 -6 -18 -170
-18 -175 0 -4 9 -170 12 -786 12 -430 0 -792 3 -804 6 -18 5 -23 14 -23 40 0
23 -5 34 -15 34 -25 0 -34 34 -28 118 l6 82 58 60 c33 33 59 67 59 75 0 9 9
25 20 37 12 13 20 36 20 55 0 18 5 33 10 33 6 0 10 7 10 15 0 8 5 15 10 15 6
0 18 8 28 17 23 22 58 43 73 43 6 0 17 7 25 15 9 8 24 15 35 15 11 0 22 7 25
15 4 8 14 15 25 15 10 0 22 6 26 13 12 21 70 37 129 37 30 0 54 5 54 10 0 6 6
10 13 10 6 0 25 14 40 30 16 16 35 30 42 30 7 0 15 7 19 15 3 8 11 15 17 15 6
0 31 19 54 43 36 36 43 50 48 97 4 30 11 56 17 58 5 2 10 16 10 30 0 36 20
105 32 113 5 3 14 38 20 78 7 39 15 71 20 71 4 0 8 36 8 80 0 47 -4 80 -10 80
-5 0 -10 16 -10 35 0 19 5 35 10 35 6 0 10 16 10 35 0 19 -4 35 -8 35 -11 0
-33 107 -25 125 3 8 11 15 18 15 7 0 16 7 19 16 9 24 -4 82 -20 88 -8 3 -14
19 -14 39 0 33 1 35 47 40 78 9 89 -2 102 -102 6 -47 15 -87 21 -89 5 -2 10
-16 10 -30 0 -37 19 -102 30 -102 4 0 14 -22 21 -50 7 -27 16 -50 20 -50 4 0
11 -25 14 -55 4 -30 11 -55 16 -55 5 0 9 -7 9 -15 0 -19 21 -65 30 -65 12 0
30 50 30 85 0 19 4 35 9 35 5 0 15 25 21 55 6 30 15 55 19 55 11 0 31 71 31
108 0 17 5 32 11 34 6 2 15 26 20 53 5 28 14 52 19 53 12 4 14 62 2 62 -4 0
-13 13 -20 30 -9 18 -26 34 -48 42 -22 8 -37 21 -40 35 -4 13 -10 23 -15 23
-5 0 -9 27 -9 59 0 51 3 61 20 66 29 9 77 -3 84 -21 4 -11 17 -14 43 -12 34 3
38 6 41 33 2 16 7 32 12 35 4 3 11 40 15 83 l7 77 -861 0 -861 0 0 -1300z"/>
<path d="M1788 2593 c12 -2 22 -10 22 -18 0 -7 6 -15 13 -18 20 -7 37 4 37 24
0 16 -7 19 -47 18 -27 -1 -38 -4 -25 -6z"/>
<path d="M1801 2344 c0 -11 3 -14 6 -6 3 7 2 16 -1 19 -3 4 -6 -2 -5 -13z"/>
<path d="M1722 1970 c0 -14 2 -19 5 -12 2 6 2 18 0 25 -3 6 -5 1 -5 -13z"/>
<path d="M1641 1924 c0 -11 3 -14 6 -6 3 7 2 16 -1 19 -3 4 -6 -2 -5 -13z"/>
<path d="M1270 1770 c0 -33 4 -60 8 -60 5 0 14 -22 21 -50 7 -27 17 -50 21
-50 5 0 11 -8 14 -17 3 -10 3 7 1 37 -3 30 -9 56 -15 58 -5 2 -10 18 -10 35 0
42 -19 107 -30 107 -6 0 -10 -27 -10 -60z"/>
<path d="M1270 1375 c0 -69 3 -85 15 -85 8 0 15 -4 15 -10 0 -5 16 -10 35 -10
32 0 35 2 35 30 0 17 -5 30 -10 30 -6 0 -15 11 -20 25 -5 14 -13 25 -18 25 -5
0 -14 18 -21 40 -19 64 -31 47 -31 -45z"/>
<path d="M1270 1120 c0 -67 14 -80 24 -22 10 60 7 82 -9 82 -12 0 -15 -13 -15
-60z"/>
<path d="M868 878 c-27 -30 -28 -34 -28 -154 0 -119 1 -124 21 -124 12 0 23 8
26 20 3 13 17 22 39 26 l34 6 0 78 c0 63 4 81 20 100 11 13 20 29 20 35 0 7 7
15 15 19 36 14 11 26 -52 25 -63 -1 -70 -3 -95 -31z"/>
<path d="M1940 899 c0 -22 23 -89 31 -89 4 0 13 -16 19 -35 6 -19 15 -35 20
-35 5 0 14 -17 21 -37 6 -21 18 -44 26 -51 7 -7 13 -20 13 -28 0 -8 7 -14 15
-14 8 0 15 6 15 14 0 8 6 21 13 28 22 22 37 55 37 83 0 30 -59 92 -97 101 -13
4 -27 12 -30 19 -2 7 -18 19 -34 25 -16 7 -29 16 -29 21 0 5 -4 9 -10 9 -5 0
-10 -5 -10 -11z"/>
<path d="M1610 861 c0 -37 -12 -51 -41 -51 -16 0 -29 6 -30 13 0 6 -5 2 -11
-10 -12 -24 7 -113 24 -113 4 0 13 -11 18 -24 5 -13 18 -27 29 -31 12 -3 21
-10 21 -14 0 -4 19 -13 42 -20 22 -7 48 -19 55 -27 9 -8 35 -14 64 -14 61 0
64 17 14 64 -19 19 -35 38 -35 44 0 6 -6 15 -13 19 -8 4 -19 29 -27 56 -7 26
-17 47 -21 47 -5 0 -9 6 -9 13 0 15 -54 67 -69 67 -6 0 -11 -9 -11 -19z"/>
<path d="M730 860 c0 -6 -11 -15 -25 -20 -14 -5 -25 -16 -25 -25 0 -8 -4 -15
-8 -15 -5 0 -14 -18 -21 -40 -6 -22 -16 -40 -21 -40 -6 0 -10 -25 -10 -55 0
-60 16 -87 58 -99 12 -4 22 -12 22 -17 0 -5 9 -9 20 -9 19 0 20 7 20 165 0 91
-2 165 -5 165 -3 0 -5 -5 -5 -10z"/>
<path d="M1310 800 c0 -16 4 -30 8 -30 5 0 15 -18 22 -40 7 -22 17 -40 22 -40
16 0 9 -78 -8 -84 -31 -12 -45 -6 -55 24 -6 17 -14 30 -19 30 -7 0 -22 -81
-16 -88 2 -1 64 -1 137 0 l134 3 -22 20 c-13 11 -23 25 -23 32 0 7 -15 15 -34
19 -31 5 -35 10 -41 45 -4 21 -10 39 -15 39 -4 0 -11 12 -15 27 -6 27 -48 73
-66 73 -5 0 -9 -13 -9 -30z"/>
<path d="M530 793 c-27 -10 -35 -37 -37 -123 -2 -80 6 -115 32 -147 6 -7 16
-19 23 -27 6 -8 12 -19 12 -23 0 -4 11 -21 24 -36 14 -16 27 -34 29 -40 4 -14
157 -22 223 -12 52 7 56 32 5 27 -36 -4 -101 15 -101 29 0 5 -18 9 -39 9 -22
0 -43 5 -46 10 -3 6 -15 10 -26 10 -10 0 -19 5 -19 10 0 6 -11 15 -25 20 -14
5 -25 14 -25 20 0 6 -7 19 -16 27 -22 22 -17 229 6 243 16 10 4 12 -20 3z"/>
<path d="M1080 630 c0 -16 5 -30 10 -30 6 0 10 14 10 30 0 17 -4 30 -10 30 -5
0 -10 -13 -10 -30z"/>
<path d="M1915 650 c3 -5 10 -10 16 -10 5 0 9 5 9 10 0 6 -7 10 -16 10 -8 0
-12 -4 -9 -10z"/>
<path d="M2220 630 c-7 -16 -16 -30 -20 -30 -4 0 -10 -12 -13 -27 -3 -16 -9
-36 -12 -45 -6 -16 -1 -18 37 -18 25 0 60 -5 78 -12 33 -11 110 -80 110 -97 0
-6 5 -13 11 -17 8 -5 10 18 8 79 -4 83 -5 86 -40 119 -20 19 -40 44 -43 56 -6
19 -15 22 -55 22 -44 0 -50 -3 -61 -30z"/>
<path d="M358 541 c-10 -10 -18 -23 -18 -29 0 -7 -4 -12 -10 -12 -5 0 -10 -9
-10 -20 0 -15 7 -20 25 -20 28 0 45 25 45 69 0 35 -7 38 -32 12z"/>
<path d="M950 480 c21 -18 50 -27 50 -16 0 13 -34 36 -52 36 -21 0 -21 0 2
-20z"/>
<path d="M1996 419 c-39 -3 -72 -11 -74 -17 -2 -7 -15 -12 -30 -12 l-26 0 22
-20 c25 -23 127 -29 134 -8 3 9 43 14 126 18 103 4 120 7 112 20 -11 17 -159
28 -264 19z"/>
<path d="M453 407 c-11 -16 -49 -37 -68 -37 -8 0 -15 -4 -15 -10 0 -6 30 -10
70 -10 39 0 70 2 70 5 0 2 -5 15 -11 29 -14 29 -35 40 -46 23z"/>
</g>
</svg>
